{"title":"Eurovision.Song.Contest.2016.SF1.EBU-FEED.reenc.720p.AC3-icekube","uid":14617367,"size":3955598767,"categoryP":"video","categoryS":"hd___tv_shows","magnet":"?xt=urn:btih:ac0f54fad4c3d6601b474fa94c33ecac88e54e20&amp;dn=Eurovision.Song.Contest.2016.SF1.EBU-FEED.reenc.720p.AC3-icekube&amp;tr=udp%3A%2F%2Ftracker.leechers-paradise.org%3A6969&amp;tr=udp%3A%2F%2Fzer0day.ch%3A1337&amp;tr=udp%3A%2F%2Fopen.demonii.com%3A1337&amp;tr=udp%3A%2F%2Ftracker.coppersurfer.tk%3A6969&amp;tr=udp%3A%2F%2Fexodus.desync.com%3A6969","seeders":1,"leechers":0,"uploader":"iceqbeic","files":2,"time":1463223331,"description":"This is the re-encode of the original EBU feed transport stream posted. Size really doesn't matter! ;)\r\n\r\nOriginal feed ts posted by Anonymous as: Eurovision Song Contest 2016: Stockholm (1st SF) [FEED 1080i]\r\n\r\nWORDS OF CAUTION WHEN PLAYING BACK!\r\n\r\nMedia player tests/comparison. Original transport stream. Players used:\r\nVLC 2.2.1\r\nMS Media player Ver. 12.07601.19148\r\nMPC+HC Media Player Classic with CCCP:MPC 64-bit 1.7.8.162/CCCP Raise Your Flag 2015-10-18\r\n\r\nPlaying back the original feed transport stream:\r\nMS Media player: There's no image playing the original feed. There is sound, but no picture. File opens in a windows not corresponding with actual size.\r\nVLC: Severe colour, time jump and image/sound sync issues. Colours are bled out with usually red remaining to some extent. Colour comes and goes. Does not correct sync.\r\nMPC: Jump issues. Change slider and image is frozen for quite a while. No colour issues and possibly a 1/10 or 1/20 second image/sound sync issue at the end.\r\n\r\nPlaying back my 720p re-encode:\r\nMPC: No colour issues. No discernible image/sound sync issues at the end.\r\nVLC: Same colour issues as with the original. Image/sound sync issues, say, 1/10-1/8 of a second at the end.\r\nMS Media player: There's no image playing the original feed. There is sound, but no picture. File opens in a windows not corresponding with actual size.\r\n\r\nRecommended media player is CCCP package with the Media Player Classic found at http://www.cccp-project.net/\r\n\r\nVideo\r\nID                             : 1\r\nFormat                         : AVC\r\nFormat/Info                    : Advanced Video Codec\r\nFormat profile                 :   \r\nFormat settings, CABAC         : Yes\r\nFormat settings, ReFrames      : 4 frames\r\nCodec ID                       : avc1\r\nCodec ID/Info                  : Advanced Video Coding\r\nDuration                       : 2h 5mn\r\nBit rate                       : 3 747 Kbps\r\nWidth                          : 1 280 pixels\r\nHeight                         : 722 pixels\r\nDisplay aspect ratio           : 16:9\r\nFrame rate mode                : Variable\r\nFrame rate                     : 45.568 fps\r\nMinimum frame rate             : 12.500 fps\r\nMaximum frame rate             : 50.000 fps\r\nColor space                    : YUV\r\nChroma subsampling             : 4:2:0\r\nBit depth                      : 8 bits\r\nScan type                      : Progressive\r\nBits/(Pixel*Frame)             : 0.089\r\nStream size                    : 3.29 GiB (89%)\r\nWriting library                : x264 core 142 r2479 dd79a61\r\nEncoded date                   : UTC 2036-02-06 06:28:16\r\nTagged date                    : UTC 2036-02-06 06:28:16\r\nColor range                    : Limited\r\nColor primaries                : BT.709\r\nTransfer characteristics       : BT.709\r\nMatrix coefficients            : BT.709\r\n\r\nAudio\r\nID                             : 2\r\nFormat                         : AC-3\r\nFormat/Info                    : Audio Coding 3\r\nMode extension                 : CM (complete main)\r\nFormat settings, Endianness    : Big\r\nCodec ID                       : ac-3\r\nDuration                       : 2h 5mn\r\nBit rate mode                  : Constant\r\nBit rate                       : 448 Kbps\r\nChannel(s)                     : 6 channels\r\nChannel positions              : Front: L C R, Side: L R, LFE\r\nSampling rate                  : 48.0 KHz\r\nBit depth                      : 16 bits\r\nCompression mode               : Lossy\r\nStream size                    : 402 MiB (11%)\r\nTitle                          : Surround / Surround\r\nEncoded date                   : UTC 2036-02-06 06:28:16\r\nTagged date                    : UTC 2036-02-06 06:28:16","torrent":{"xt":"urn:btih:ac0f54fad4c3d6601b474fa94c33ecac88e54e20","amp;dn":"Eurovision.Song.Contest.2016.SF1.EBU-FEED.reenc.720p.AC3-icekube","amp;tr":["udp%3A%2F%2Ftracker.leechers-paradise.org%3A6969","udp%3A%2F%2Fzer0day.ch%3A1337","udp%3A%2F%2Fopen.demonii.com%3A1337","udp%3A%2F%2Ftracker.coppersurfer.tk%3A6969","udp%3A%2F%2Fexodus.desync.com%3A6969"],"infoHash":"ac0f54fad4c3d6601b474fa94c33ecac88e54e20","infoHashBuffer":{"type":"Buffer","data":[172,15,84,250,212,195,214,96,27,71,79,169,76,51,236,172,136,229,78,32]},"announce":[],"urlList":[]}}